<svg width="152" height="45" viewBox="0 0 152 45" fill="none" xmlns="http://www.w3.org/2000/svg">
<path d="M37.648 40.54C37.584 40.524 37.512 40.496 37.432 40.456C37.36 40.424 37.304 40.376 37.264 40.312C37.264 40.032 37.256 39.756 37.24 39.484C37.232 39.204 37.228 38.924 37.228 38.644C37.228 38.212 37.24 37.78 37.264 37.348C37.296 36.916 37.312 36.484 37.312 36.052C37.248 36.74 37.216 37.428 37.216 38.116C37.216 38.796 37.196 39.48 37.156 40.168C37.044 40.008 36.976 39.828 36.952 39.628C36.936 39.42 36.928 39.22 36.928 39.028L36.952 38.428L37.084 38.368C37.06 38.144 37.048 37.912 37.048 37.672C37.048 37.392 37.06 37.12 37.084 36.856C37.108 36.584 37.132 36.308 37.156 36.028H37.06L36.94 37.912L37 36.028C36.784 36.028 36.572 36.048 36.364 36.088C36.156 36.128 35.944 36.148 35.728 36.148C35.32 36.148 34.912 36.14 34.504 36.124C34.104 36.108 33.7 36.092 33.292 36.076C33.292 36.524 33.268 36.968 33.22 37.408C33.18 37.84 33.16 38.276 33.16 38.716C33.16 38.78 33.164 38.864 33.172 38.968C33.188 39.064 33.196 39.168 33.196 39.28C33.196 39.384 33.184 39.476 33.16 39.556C33.136 39.636 33.092 39.688 33.028 39.712L32.944 39.688L32.956 38.44C32.94 38.648 32.928 38.856 32.92 39.064C32.912 39.272 32.908 39.48 32.908 39.688C32.884 39.68 32.848 39.676 32.8 39.676C32.744 39.676 32.708 39.68 32.692 39.688C32.7 39.712 32.704 39.744 32.704 39.784C32.704 39.976 32.608 40.096 32.416 40.144C32.344 40.112 32.284 40.084 32.236 40.06C32.188 40.036 32.148 40.004 32.116 39.964C32.084 39.916 32.06 39.86 32.044 39.796C32.028 39.732 32.02 39.644 32.02 39.532V39.328L31.96 39.724C31.896 39.66 31.856 39.592 31.84 39.52C31.824 39.448 31.816 39.372 31.816 39.292C31.816 39.092 31.824 38.896 31.84 38.704C31.856 38.504 31.864 38.304 31.864 38.104L31.96 38.044C31.936 37.78 31.924 37.516 31.924 37.252C31.924 36.996 31.928 36.736 31.936 36.472C31.952 36.208 31.96 35.944 31.96 35.68C31.96 35.496 31.956 35.308 31.948 35.116C31.94 34.924 31.92 34.736 31.888 34.552H31.816C31.832 34.872 31.84 35.192 31.84 35.512C31.848 35.832 31.852 36.152 31.852 36.472V37.972C31.852 37.172 31.828 36.372 31.78 35.572C31.74 34.772 31.72 33.972 31.72 33.172C31.76 32.788 31.792 32.456 31.816 32.176C31.848 31.896 31.884 31.588 31.924 31.252C32.004 31.26 32.092 31.272 32.188 31.288C32.292 31.304 32.344 31.368 32.344 31.48L32.32 31.684H32.476C32.492 31.636 32.512 31.58 32.536 31.516C32.568 31.444 32.604 31.38 32.644 31.324C32.684 31.26 32.728 31.208 32.776 31.168C32.832 31.12 32.892 31.096 32.956 31.096C33.036 31.096 33.096 31.156 33.136 31.276C33.184 31.388 33.22 31.536 33.244 31.72C33.268 31.904 33.284 32.12 33.292 32.368C33.3 32.608 33.304 32.852 33.304 33.1C33.304 33.236 33.3 33.368 33.292 33.496C33.292 33.624 33.292 33.748 33.292 33.868C33.292 34.028 33.292 34.18 33.292 34.324C33.3 34.46 33.308 34.584 33.316 34.696H33.952L34.048 34.84C34.16 34.824 34.268 34.812 34.372 34.804C34.476 34.796 34.584 34.792 34.696 34.792C34.784 34.792 34.876 34.796 34.972 34.804C35.068 34.804 35.16 34.804 35.248 34.804C35.4 34.804 35.548 34.796 35.692 34.78C35.844 34.764 35.996 34.736 36.148 34.696V34.624C35.868 34.664 35.592 34.688 35.32 34.696C35.072 34.696 34.82 34.696 34.564 34.696C34.956 34.68 35.356 34.652 35.764 34.612C36.188 34.572 36.612 34.544 37.036 34.528C37.036 34.064 37.052 33.6 37.084 33.136C37.116 32.672 37.132 32.212 37.132 31.756L37.12 31.504L37.42 31.48C37.452 31.48 37.476 31.5 37.492 31.54C37.516 31.572 37.536 31.612 37.552 31.66C37.568 31.7 37.58 31.744 37.588 31.792C37.596 31.832 37.6 31.86 37.6 31.876C37.624 31.852 37.652 31.816 37.684 31.768C37.716 31.72 37.748 31.672 37.78 31.624C37.82 31.576 37.856 31.536 37.888 31.504C37.92 31.464 37.944 31.444 37.96 31.444C38.096 31.444 38.204 31.468 38.284 31.516C38.364 31.564 38.424 31.632 38.464 31.72C38.512 31.8 38.54 31.892 38.548 31.996C38.564 32.1 38.572 32.204 38.572 32.308C38.572 32.388 38.568 32.468 38.56 32.548C38.56 32.62 38.56 32.688 38.56 32.752V34.252C38.56 35.028 38.516 35.804 38.428 36.58C38.34 37.348 38.296 38.116 38.296 38.884C38.296 38.94 38.304 39.044 38.32 39.196C38.344 39.34 38.356 39.484 38.356 39.628C38.356 39.74 38.344 39.836 38.32 39.916C38.296 39.988 38.252 40.024 38.188 40.024C38.132 39.728 38.096 39.424 38.08 39.112C38.08 39.416 38.092 39.72 38.116 40.024L38.008 40C37.992 40.112 37.956 40.22 37.9 40.324C37.852 40.428 37.768 40.5 37.648 40.54ZM32.116 37.9C32.14 37.612 32.152 37.32 32.152 37.024C32.152 36.816 32.148 36.612 32.14 36.412C32.132 36.228 32.12 36.04 32.104 35.848C32.104 36.112 32.104 36.376 32.104 36.64C32.112 36.912 32.116 37.188 32.116 37.468V37.9ZM34.672 35.008C34.792 35.008 34.912 35.004 35.032 34.996C35.16 34.988 35.284 34.976 35.404 34.96H35.164C34.996 34.96 34.828 34.964 34.66 34.972C34.5 34.98 34.336 34.984 34.168 34.984C34.256 35 34.34 35.008 34.42 35.008H34.672ZM33.328 34.996H34.096C34.072 34.996 34.048 34.992 34.024 34.984C33.952 34.976 33.868 34.968 33.772 34.96C33.676 34.952 33.584 34.944 33.496 34.936C33.416 34.928 33.36 34.92 33.328 34.912V34.996ZM38.104 37.42C38.088 37.684 38.08 37.948 38.08 38.212C38.096 37.956 38.112 37.692 38.128 37.42C38.152 37.14 38.18 36.864 38.212 36.592C38.164 36.864 38.128 37.14 38.104 37.42ZM34.048 35.836C33.808 35.812 33.568 35.8 33.328 35.8L33.316 35.836H34.048ZM49.8929 40.744C50.2449 40.856 50.6049 40.912 50.9729 40.912C51.3889 40.912 51.7769 40.848 52.1369 40.72C52.4969 40.592 52.8249 40.416 53.1209 40.192C53.4169 39.968 53.6769 39.708 53.9009 39.412C54.0609 39.204 54.2009 38.98 54.3209 38.74C54.2169 38.964 54.0969 39.184 53.9609 39.4C53.7689 39.704 53.5289 39.972 53.2409 40.204C52.9609 40.436 52.6369 40.62 52.2689 40.756C51.9009 40.9 51.4849 40.972 51.0209 40.972H50.8649C50.2009 40.972 49.6249 40.824 49.1369 40.528C48.6489 40.232 48.2449 39.856 47.9249 39.4C47.6049 38.936 47.3649 38.42 47.2049 37.852C47.0529 37.284 46.9769 36.724 46.9769 36.172C46.9769 35.94 46.9889 35.696 47.0129 35.44C47.0369 35.176 47.0889 34.912 47.1689 34.648C47.2489 34.384 47.3609 34.128 47.5049 33.88C47.6569 33.624 47.8609 33.392 48.1169 33.184C48.3249 33.016 48.5489 32.876 48.7889 32.764C49.0369 32.644 49.2809 32.576 49.5209 32.56C49.4969 32.576 49.4849 32.592 49.4849 32.608C49.4849 32.64 49.5009 32.676 49.5329 32.716C49.5729 32.748 49.5929 32.784 49.5929 32.824V32.848C49.5929 32.88 49.5729 32.904 49.5329 32.92C49.5009 32.936 49.4449 32.96 49.3649 32.992C49.2849 33.016 49.1809 33.056 49.0529 33.112C48.9249 33.168 48.7729 33.252 48.5969 33.364C48.6449 33.412 48.6689 33.448 48.6689 33.472C48.8209 33.392 48.9609 33.336 49.0889 33.304C49.2169 33.272 49.3369 33.256 49.4489 33.256C49.6809 33.256 49.8489 33.296 49.9529 33.376C50.0569 33.456 50.1089 33.516 50.1089 33.556C50.1089 33.62 50.0569 33.672 49.9529 33.712C49.8569 33.752 49.7409 33.804 49.6049 33.868C49.4769 33.924 49.3409 34.004 49.1969 34.108C49.0529 34.204 48.9409 34.348 48.8609 34.54C48.7329 34.732 48.6329 34.972 48.5609 35.26C48.4969 35.548 48.4649 35.84 48.4649 36.136C48.4649 36.64 48.5249 37.1 48.6449 37.516C48.7649 37.932 48.9329 38.292 49.1489 38.596C49.3729 38.9 49.6409 39.136 49.9529 39.304C50.2729 39.472 50.6329 39.556 51.0329 39.556C51.4169 39.556 51.7609 39.46 52.0649 39.268C52.3769 39.076 52.6409 38.816 52.8569 38.488C53.0729 38.152 53.2369 37.768 53.3489 37.336C53.4609 36.896 53.5169 36.428 53.5169 35.932C53.5169 35.692 53.5009 35.456 53.4689 35.224C53.4449 34.984 53.3889 34.756 53.3009 34.54C53.2209 34.324 53.1049 34.12 52.9529 33.928C52.8089 33.736 52.6169 33.56 52.3769 33.4C52.0729 33.24 51.8249 33.128 51.6329 33.064C51.4409 32.992 51.3449 32.924 51.3449 32.86C51.3449 32.836 51.3609 32.808 51.3929 32.776C51.7929 32.864 52.1529 33.008 52.4729 33.208C52.7689 33.392 53.0169 33.632 53.2169 33.928C53.0009 33.6 52.7569 33.348 52.4849 33.172C52.1889 32.972 51.8369 32.816 51.4289 32.704C51.4689 32.664 51.4889 32.628 51.4889 32.596C51.4889 32.564 51.4289 32.536 51.3089 32.512C51.1969 32.488 51.0729 32.46 50.9369 32.428C50.8009 32.396 50.6729 32.356 50.5529 32.308C50.4409 32.26 50.3849 32.2 50.3849 32.128C50.3849 32.04 50.4569 31.976 50.6009 31.936C50.7449 31.896 50.9209 31.848 51.1289 31.792C51.1849 31.792 51.2369 31.8 51.2849 31.816C51.3409 31.832 51.3889 31.848 51.4289 31.864C51.8209 31.936 52.1929 32.064 52.5449 32.248C52.9049 32.432 53.2249 32.668 53.5049 32.956C53.7929 33.244 54.0329 33.588 54.2249 33.988C54.4169 34.38 54.5409 34.824 54.5969 35.32C54.5569 34.848 54.4489 34.42 54.2729 34.036C54.1049 33.644 53.8809 33.296 53.6009 32.992C53.3289 32.688 53.0089 32.432 52.6409 32.224C52.2729 32.016 51.8809 31.856 51.4649 31.744C51.8329 31.744 52.1969 31.82 52.5569 31.972C52.9249 32.116 53.2609 32.332 53.5649 32.62C53.8689 32.9 54.1329 33.248 54.3569 33.664C54.5809 34.08 54.7409 34.556 54.8369 35.092C54.8209 35.092 54.7969 35.1 54.7649 35.116C54.7329 35.124 54.7089 35.128 54.6929 35.128C54.7649 35.536 54.8009 35.932 54.8009 36.316C54.8009 36.876 54.7129 37.424 54.5369 37.96C54.3689 38.496 54.1209 38.976 53.7929 39.4C53.4729 39.816 53.0769 40.152 52.6049 40.408C52.1329 40.672 51.5929 40.804 50.9849 40.804C50.6249 40.804 50.2729 40.752 49.9289 40.648C49.5849 40.544 49.2649 40.404 48.9689 40.228C48.9849 40.244 48.9929 40.26 48.9929 40.276C48.9929 40.292 48.9729 40.3 48.9329 40.3C49.2289 40.492 49.5489 40.64 49.8929 40.744ZM54.6209 36.448C54.5809 36.76 54.5209 37.084 54.4409 37.42C54.3689 37.748 54.2649 38.072 54.1289 38.392C54.0009 38.712 53.8369 39.012 53.6369 39.292C53.4369 39.564 53.2009 39.8 52.9289 40C53.2009 39.808 53.4409 39.58 53.6489 39.316C53.8569 39.044 54.0289 38.748 54.1649 38.428C54.3089 38.108 54.4169 37.772 54.4889 37.42C54.5689 37.06 54.6169 36.704 54.6329 36.352C54.6249 36.376 54.6209 36.408 54.6209 36.448ZM53.6609 37.144C53.5969 37.448 53.5009 37.744 53.3729 38.032C53.2449 38.312 53.0809 38.564 52.8809 38.788C53.0889 38.572 53.2569 38.324 53.3849 38.044C53.5129 37.764 53.6049 37.464 53.6609 37.144ZM54.8969 36.088C54.8969 36.224 54.8889 36.364 54.8729 36.508C54.8649 36.644 54.8529 36.784 54.8369 36.928C54.8369 36.792 54.8449 36.64 54.8609 36.472C54.8769 36.296 54.8849 36.104 54.8849 35.896V35.68C54.8929 35.744 54.8969 35.812 54.8969 35.884V36.088ZM53.6609 37.144C53.7009 36.968 53.7289 36.792 53.7449 36.616C53.7689 36.432 53.7809 36.248 53.7809 36.064C53.7809 35.864 53.7689 35.66 53.7449 35.452C53.7529 35.54 53.7569 35.624 53.7569 35.704C53.7649 35.784 53.7689 35.868 53.7689 35.956C53.7689 36.364 53.7329 36.76 53.6609 37.144ZM54.8369 37L54.7289 37.588C54.6889 37.732 54.6489 37.876 54.6089 38.02C54.5689 38.156 54.5209 38.292 54.4649 38.428C54.5529 38.18 54.6249 37.932 54.6809 37.684C54.7449 37.436 54.7969 37.192 54.8369 36.952V37ZM48.9449 40.324C48.9449 40.316 48.9409 40.308 48.9329 40.3C48.9329 40.308 48.9369 40.316 48.9449 40.324ZM54.4649 38.428C54.4489 38.46 54.4369 38.488 54.4289 38.512C54.4369 38.488 54.4489 38.46 54.4649 38.428ZM54.3329 38.716C54.3489 38.692 54.3609 38.668 54.3689 38.644C54.3609 38.668 54.3489 38.692 54.3329 38.716ZM53.2889 34.024C53.2809 34.008 53.2689 33.992 53.2529 33.976C53.2609 33.992 53.2729 34.008 53.2889 34.024ZM54.4289 38.512C54.4129 38.552 54.3969 38.592 54.3809 38.632C54.3969 38.592 54.4129 38.552 54.4289 38.512ZM70.399 32.416C69.783 32.416 69.171 32.436 68.563 32.476C67.955 32.508 67.347 32.524 66.739 32.524C66.843 32.532 66.943 32.54 67.039 32.548C67.143 32.548 67.251 32.548 67.363 32.548C67.731 32.548 68.095 32.544 68.455 32.536C68.823 32.52 69.191 32.512 69.559 32.512H69.919C70.039 32.512 70.163 32.516 70.291 32.524C70.179 32.596 70.059 32.648 69.931 32.68C69.811 32.712 69.687 32.736 69.559 32.752C69.439 32.76 69.311 32.764 69.175 32.764C69.047 32.764 68.919 32.768 68.791 32.776L68.683 32.632C68.499 32.664 68.315 32.684 68.131 32.692C67.947 32.7 67.763 32.704 67.579 32.704L66.511 32.692L66.523 32.8L68.527 32.788C67.847 32.828 67.179 32.852 66.523 32.86C66.531 32.964 66.539 33.068 66.547 33.172C66.555 33.268 66.567 33.368 66.583 33.472L66.439 33.508C66.503 33.78 66.547 34.08 66.571 34.408C66.603 34.728 66.631 35.056 66.655 35.392C66.679 35.728 66.711 36.06 66.751 36.388C66.799 36.708 66.867 37 66.955 37.264L66.991 37.228C66.943 36.956 66.899 36.664 66.859 36.352C66.819 36.032 66.779 35.708 66.739 35.38C66.707 35.044 66.675 34.716 66.643 34.396C66.619 34.092 66.599 33.808 66.583 33.544C66.615 33.968 66.663 34.412 66.727 34.876C66.799 35.348 66.875 35.828 66.955 36.316C67.035 36.796 67.111 37.272 67.183 37.744C67.263 38.216 67.335 38.668 67.399 39.1C67.415 39.236 67.435 39.384 67.459 39.544C67.483 39.696 67.495 39.852 67.495 40.012V40.156C67.495 40.212 67.487 40.264 67.471 40.312C67.415 40.312 67.359 40.32 67.303 40.336C67.255 40.36 67.203 40.372 67.147 40.372C67.059 40.372 67.003 40.328 66.979 40.24C66.963 40.152 66.955 40.076 66.955 40.012H66.847C66.839 40.06 66.823 40.12 66.799 40.192C66.783 40.272 66.755 40.348 66.715 40.42C66.683 40.492 66.639 40.552 66.583 40.6C66.535 40.648 66.479 40.672 66.415 40.672C66.335 40.672 66.263 40.616 66.199 40.504C66.135 40.392 66.075 40.248 66.019 40.072C65.971 39.896 65.927 39.704 65.887 39.496C65.855 39.28 65.823 39.076 65.791 38.884C65.767 38.684 65.743 38.504 65.719 38.344C65.703 38.184 65.687 38.068 65.671 37.996C65.591 37.66 65.515 37.292 65.443 36.892C65.379 36.492 65.323 36.088 65.275 35.68C65.227 35.272 65.187 34.868 65.155 34.468C65.131 34.06 65.119 33.68 65.119 33.328C65.119 33.272 65.119 33.22 65.119 33.172C65.127 33.116 65.131 33.06 65.131 33.004V32.932C65.131 32.9 65.127 32.868 65.119 32.836C64.647 32.828 64.199 32.808 63.775 32.776C63.351 32.736 62.879 32.684 62.359 32.62C62.367 32.572 62.371 32.52 62.371 32.464C62.371 32.408 62.375 32.356 62.383 32.308C62.399 32.26 62.419 32.22 62.443 32.188C62.475 32.148 62.527 32.128 62.599 32.128C62.647 32.128 62.703 32.136 62.767 32.152L62.803 32.044C62.707 32.004 62.595 31.94 62.467 31.852C62.339 31.764 62.275 31.66 62.275 31.54C62.275 31.468 62.303 31.416 62.359 31.384C62.415 31.344 62.483 31.316 62.563 31.3C62.643 31.284 62.723 31.276 62.803 31.276C62.883 31.268 62.943 31.264 62.983 31.264C63.271 31.264 63.555 31.28 63.835 31.312C64.123 31.344 64.411 31.36 64.699 31.36C65.427 31.36 66.151 31.372 66.871 31.396C67.591 31.412 68.315 31.42 69.043 31.42C69.187 31.42 69.327 31.4 69.463 31.36C69.607 31.32 69.751 31.3 69.895 31.3C69.951 31.3 69.999 31.316 70.039 31.348C70.087 31.38 70.111 31.428 70.111 31.492C69.895 31.532 69.675 31.564 69.451 31.588C69.251 31.604 69.047 31.62 68.839 31.636C69.047 31.636 69.251 31.628 69.451 31.612C69.667 31.596 69.887 31.58 70.111 31.564V31.792L70.327 31.756C70.391 31.772 70.451 31.804 70.507 31.852C70.563 31.892 70.591 31.952 70.591 32.032C70.591 32.104 70.571 32.176 70.531 32.248C70.491 32.312 70.447 32.368 70.399 32.416ZM66.187 32.86C66.203 33.092 66.223 33.348 66.247 33.628C66.279 33.908 66.311 34.192 66.343 34.48C66.375 34.768 66.407 35.052 66.439 35.332C66.479 35.604 66.515 35.856 66.547 36.088C66.523 35.864 66.495 35.612 66.463 35.332C66.439 35.052 66.415 34.768 66.391 34.48C66.367 34.192 66.343 33.908 66.319 33.628C66.303 33.348 66.295 33.092 66.295 32.86H66.187ZM68.371 31.636H67.711C67.511 31.636 67.311 31.632 67.111 31.624C67.207 31.64 67.299 31.656 67.387 31.672C67.499 31.696 67.623 31.708 67.759 31.708C67.855 31.708 67.955 31.7 68.059 31.684C68.171 31.668 68.275 31.652 68.371 31.636ZM66.235 32.8H66.295V32.692H66.235V32.8ZM82.9732 36.1C82.6612 35.988 82.3372 35.916 82.0012 35.884C81.6812 35.844 81.3532 35.808 81.0172 35.776C81.3212 35.824 81.6332 35.868 81.9532 35.908C82.2892 35.948 82.6052 36.036 82.9012 36.172C82.8692 36.204 82.8372 36.232 82.8052 36.256C82.7732 36.28 82.7412 36.292 82.7092 36.292C82.5972 36.292 82.4892 36.28 82.3852 36.256C82.2812 36.224 82.1692 36.208 82.0492 36.208V36.064C82.0092 36.072 81.9532 36.076 81.8812 36.076C81.6812 36.076 81.4852 36.048 81.2932 35.992C81.1012 35.936 80.9052 35.908 80.7052 35.908C80.6012 35.908 80.5012 35.92 80.4052 35.944V35.992C80.6612 36.008 80.9212 36.036 81.1852 36.076C81.4572 36.108 81.7332 36.152 82.0132 36.208C81.7572 36.168 81.4812 36.132 81.1852 36.1C80.8972 36.068 80.6252 36.052 80.3692 36.052C80.2652 36.052 80.1652 36.056 80.0692 36.064C79.9812 36.064 79.8932 36.068 79.8052 36.076C79.8052 36.244 79.8092 36.44 79.8172 36.664C79.8252 36.888 79.8412 37.108 79.8652 37.324C79.8892 37.532 79.9172 37.716 79.9492 37.876C79.9812 38.036 80.0212 38.14 80.0692 38.188L80.1772 38.404C80.2732 38.7 80.5932 38.848 81.1372 38.848C81.2572 38.848 81.4012 38.832 81.5692 38.8C81.7372 38.768 81.9052 38.732 82.0732 38.692C82.2492 38.644 82.4132 38.604 82.5652 38.572C82.7252 38.54 82.8612 38.524 82.9732 38.524C83.0852 38.524 83.1492 38.54 83.1652 38.572C83.1812 38.604 83.1892 38.648 83.1892 38.704C82.8532 38.744 82.5292 38.804 82.2172 38.884C81.9452 38.956 81.6812 39.012 81.4252 39.052C81.6812 39.012 81.9412 38.964 82.2052 38.908C82.5172 38.836 82.8332 38.78 83.1532 38.74C83.1372 38.788 83.1292 38.82 83.1292 38.836C83.1292 38.884 83.1492 38.924 83.1892 38.956L83.3572 38.932C83.4052 38.924 83.4532 38.92 83.5012 38.92C83.5492 38.912 83.5932 38.9 83.6332 38.884C83.7772 38.924 83.8772 38.968 83.9332 39.016C83.9972 39.064 84.0292 39.116 84.0292 39.172C84.0292 39.276 83.9772 39.348 83.8732 39.388C83.7772 39.428 83.6852 39.492 83.5972 39.58H83.5492C83.3172 39.58 83.0932 39.6 82.8772 39.64C82.6612 39.672 82.4452 39.708 82.2292 39.748C82.0212 39.788 81.8052 39.828 81.5812 39.868C81.3652 39.9 81.1412 39.916 80.9092 39.916H80.7412H80.6692C80.8212 39.932 80.9852 39.94 81.1612 39.94C81.3852 39.94 81.5932 39.928 81.7852 39.904C81.9852 39.88 82.1772 39.852 82.3612 39.82C82.5452 39.788 82.7212 39.76 82.8892 39.736C83.0652 39.712 83.2412 39.7 83.4172 39.7C83.2892 39.764 83.1332 39.828 82.9492 39.892C82.7652 39.948 82.5612 39.996 82.3372 40.036C82.1132 40.084 81.8812 40.12 81.6412 40.144C81.4012 40.176 81.1652 40.192 80.9332 40.192C80.7732 40.192 80.6172 40.184 80.4652 40.168C80.3132 40.152 80.1492 40.1 79.9732 40.012L79.9612 39.88C79.8492 39.84 79.7292 39.768 79.6012 39.664C79.4812 39.552 79.3692 39.436 79.2652 39.316C79.1612 39.196 79.0732 39.084 79.0012 38.98C78.9292 38.876 78.8932 38.808 78.8932 38.776L78.8572 38.668C78.7852 38.516 78.7252 38.348 78.6772 38.164C78.6372 37.98 78.6052 37.796 78.5812 37.612C78.5572 37.42 78.5372 37.232 78.5212 37.048C78.5052 36.864 78.4932 36.692 78.4852 36.532C78.4692 36.268 78.4572 36.004 78.4492 35.74C78.4412 35.468 78.4372 35.196 78.4372 34.924C78.4372 34.652 78.4372 34.38 78.4372 34.108C78.4452 33.828 78.4492 33.548 78.4492 33.268H78.4132C78.3732 33.572 78.3492 33.864 78.3412 34.144C78.3412 34.424 78.3412 34.704 78.3412 34.984V35.452C78.3412 36.012 78.3692 36.596 78.4252 37.204C78.4892 37.812 78.6452 38.404 78.8932 38.98C78.7092 38.668 78.5932 38.36 78.5452 38.056C78.4972 37.744 78.4532 37.456 78.4132 37.192C78.3652 36.848 78.3292 36.516 78.3052 36.196C78.2892 35.876 78.2812 35.548 78.2812 35.212V34.96C78.2812 34.496 78.2932 34.024 78.3172 33.544C78.3412 33.064 78.4132 32.556 78.5332 32.02C78.4852 32.02 78.4612 31.996 78.4612 31.948C78.4612 31.9 78.4852 31.832 78.5332 31.744C78.5892 31.656 78.6572 31.572 78.7372 31.492C78.8172 31.404 78.9052 31.332 79.0012 31.276C79.1052 31.212 79.2052 31.18 79.3012 31.18H82.1572C82.4532 31.236 82.7412 31.284 83.0212 31.324C83.3092 31.356 83.6092 31.38 83.9212 31.396L83.9092 31.672C83.9092 31.72 83.8852 31.76 83.8372 31.792C83.7972 31.816 83.7012 31.828 83.5492 31.828C83.5012 31.828 83.4412 31.828 83.3692 31.828C83.3052 31.82 83.2332 31.812 83.1532 31.804V31.912C83.4812 31.984 83.7372 32.072 83.9212 32.176C84.1132 32.28 84.2092 32.38 84.2092 32.476C84.2092 32.588 84.1012 32.656 83.8852 32.68C83.6772 32.704 83.3972 32.716 83.0452 32.716C82.5972 32.716 82.1172 32.716 81.6052 32.716C81.1012 32.708 80.6132 32.684 80.1412 32.644H79.9372C79.8972 32.948 79.8692 33.26 79.8532 33.58C79.8372 33.9 79.8252 34.228 79.8172 34.564C79.9452 34.564 80.0692 34.56 80.1892 34.552C80.3172 34.536 80.4492 34.528 80.5852 34.528C80.6972 34.528 80.8252 34.54 80.9692 34.564C81.1212 34.58 81.2772 34.604 81.4372 34.636C81.6052 34.668 81.7692 34.708 81.9292 34.756C82.0972 34.796 82.2492 34.84 82.3852 34.888C82.4092 34.896 82.4372 34.9 82.4692 34.9H82.6732C82.7772 34.9 82.8452 34.916 82.8772 34.948C82.9172 34.98 82.9372 35.044 82.9372 35.14C82.8012 35.14 82.6732 35.132 82.5532 35.116C82.4332 35.1 82.3172 35.084 82.2052 35.068C82.3172 35.108 82.4332 35.14 82.5532 35.164C82.6732 35.18 82.8012 35.196 82.9372 35.212C82.9212 35.252 82.9092 35.288 82.9012 35.32C82.9012 35.352 82.9012 35.38 82.9012 35.404C82.9812 35.42 83.0332 35.46 83.0572 35.524C83.0892 35.58 83.1052 35.644 83.1052 35.716C83.1052 35.82 83.0812 35.904 83.0332 35.968C82.9932 36.024 82.9732 36.068 82.9732 36.1ZM78.7492 37.456C78.7812 37.648 78.8172 37.856 78.8572 38.08C78.9052 38.296 78.9732 38.512 79.0612 38.728C79.1572 38.936 79.2852 39.132 79.4452 39.316C79.5732 39.468 79.7412 39.596 79.9492 39.7C79.7092 39.572 79.5132 39.396 79.3612 39.172C79.1852 38.9 79.0452 38.596 78.9412 38.26C78.8452 37.924 78.7732 37.568 78.7252 37.192C78.6852 36.816 78.6532 36.456 78.6292 36.112C78.6372 36.328 78.6492 36.548 78.6652 36.772C78.6812 36.996 78.7092 37.224 78.7492 37.456ZM81.6892 35.008C81.8252 35.032 81.9692 35.052 82.1212 35.068C81.9772 35.028 81.8412 35 81.7132 34.984C81.5852 34.96 81.4572 34.932 81.3292 34.9C81.4332 34.948 81.5532 34.984 81.6892 35.008ZM79.7212 39.928C79.6172 39.88 79.5252 39.824 79.4452 39.76C79.3892 39.712 79.3372 39.664 79.2892 39.616C79.3372 39.664 79.3932 39.708 79.4572 39.748C79.5452 39.812 79.6332 39.872 79.7212 39.928ZM80.0812 39.76L79.9732 39.712L80.0812 39.76ZM92.4436 36.532C92.4676 37.092 92.4916 37.652 92.5156 38.212C92.5476 38.772 92.5716 39.332 92.5876 39.892V39.952L92.5516 39.916V39.832C92.5116 39.112 92.4716 38.404 92.4316 37.708C92.3996 37.004 92.3836 36.292 92.3836 35.572V34.216C92.3836 34 92.3836 33.788 92.3836 33.58C92.3916 33.364 92.3996 33.148 92.4076 32.932C92.4156 32.684 92.4356 32.444 92.4676 32.212C92.4996 31.972 92.5156 31.724 92.5156 31.468H92.5636C92.6196 31.468 92.6676 31.464 92.7076 31.456C92.7476 31.448 92.7796 31.444 92.8036 31.444C92.8836 31.444 92.9316 31.496 92.9476 31.6C92.9636 31.704 92.9716 31.784 92.9716 31.84L92.9596 32.092H93.1036C93.1116 32.044 93.1236 31.968 93.1396 31.864C93.1636 31.752 93.1956 31.64 93.2356 31.528C93.2756 31.416 93.3196 31.32 93.3676 31.24C93.4236 31.152 93.4876 31.108 93.5596 31.108C93.6396 31.108 93.6996 31.18 93.7396 31.324C93.7876 31.468 93.8236 31.64 93.8476 31.84C93.8716 32.032 93.8836 32.232 93.8836 32.44C93.8916 32.64 93.8956 32.8 93.8956 32.92V33.064C93.8956 33.984 93.9036 34.904 93.9196 35.824C93.9356 36.744 93.9436 37.664 93.9436 38.584C93.9436 38.656 93.9396 38.732 93.9316 38.812C93.9316 38.884 93.9316 38.956 93.9316 39.028C93.9316 39.068 93.9316 39.104 93.9316 39.136C93.9396 39.168 93.9436 39.204 93.9436 39.244H94.0636C94.1356 39.244 94.2076 39.248 94.2796 39.256C94.3516 39.256 94.4236 39.256 94.4956 39.256C94.9996 39.256 95.4956 39.232 95.9836 39.184C96.4796 39.128 96.9796 39.1 97.4836 39.1H97.5316C97.6116 39.1 97.7076 39.112 97.8196 39.136C97.9316 39.152 97.9876 39.208 97.9876 39.304V39.328C97.5636 39.328 97.1476 39.344 96.7396 39.376C96.3316 39.4 95.9156 39.432 95.4916 39.472C95.8036 39.456 96.1116 39.436 96.4156 39.412C96.7276 39.388 97.0396 39.376 97.3516 39.376C97.4556 39.376 97.5556 39.38 97.6516 39.388C97.7476 39.388 97.8476 39.392 97.9516 39.4L97.9036 39.544C97.9516 39.552 98.0156 39.564 98.0956 39.58C98.1756 39.588 98.2516 39.608 98.3236 39.64C98.4036 39.672 98.4716 39.712 98.5276 39.76C98.5836 39.8 98.6116 39.852 98.6116 39.916C98.6116 40.028 98.5596 40.104 98.4556 40.144C98.3516 40.192 98.2556 40.236 98.1676 40.276C98.0476 40.236 97.9196 40.212 97.7836 40.204C97.6556 40.204 97.5276 40.204 97.3996 40.204C97.1196 40.204 96.8436 40.216 96.5716 40.24C96.3156 40.264 96.0556 40.288 95.7916 40.312C95.9836 40.304 96.1676 40.296 96.3436 40.288C96.5436 40.28 96.7436 40.276 96.9436 40.276C97.1196 40.276 97.2916 40.28 97.4596 40.288C97.6356 40.296 97.8116 40.316 97.9876 40.348C97.8436 40.412 97.6636 40.46 97.4476 40.492C97.2396 40.524 97.0196 40.548 96.7876 40.564C96.5636 40.58 96.3396 40.588 96.1156 40.588C95.8916 40.596 95.6956 40.604 95.5276 40.612L95.4196 40.492C95.2436 40.532 95.0676 40.556 94.8916 40.564C94.7156 40.58 94.5356 40.588 94.3516 40.588C94.1596 40.588 93.9676 40.58 93.7756 40.564C93.5836 40.548 93.3956 40.524 93.2116 40.492C93.1236 40.396 93.0356 40.3 92.9476 40.204C92.8596 40.116 92.7636 40.028 92.6596 39.94C92.6596 39.364 92.6436 38.796 92.6116 38.236C92.5876 37.676 92.5556 37.108 92.5156 36.532H92.4436ZM94.9996 40.372C94.8076 40.38 94.6076 40.384 94.3996 40.384C94.1516 40.384 93.9196 40.376 93.7036 40.36C93.4876 40.344 93.3356 40.316 93.2476 40.276L92.8876 39.928L92.7796 38.512V38.776C92.7796 38.96 92.7916 39.144 92.8156 39.328C92.8396 39.512 92.8516 39.696 92.8516 39.88V39.952C92.9156 40.016 92.9756 40.08 93.0316 40.144C93.0956 40.208 93.1556 40.276 93.2116 40.348H93.2956C93.4716 40.348 93.6436 40.356 93.8116 40.372C93.9876 40.396 94.1636 40.408 94.3396 40.408C94.5236 40.408 94.7036 40.4 94.8796 40.384C94.9436 40.384 95.0116 40.38 95.0836 40.372H94.9996ZM93.9796 39.532C94.0196 39.54 94.0596 39.548 94.0996 39.556C94.1476 39.556 94.1956 39.556 94.2436 39.556C94.4516 39.556 94.6596 39.552 94.8676 39.544C95.0756 39.536 95.2836 39.512 95.4916 39.472C95.2356 39.488 94.9836 39.496 94.7356 39.496C94.4876 39.496 94.2356 39.5 93.9796 39.508V39.532ZM93.1756 40.576C93.3116 40.616 93.4516 40.64 93.5956 40.648C93.7476 40.664 93.9036 40.672 94.0636 40.672C94.1596 40.672 94.2516 40.668 94.3396 40.66C94.4196 40.66 94.4956 40.66 94.5676 40.66C94.5196 40.668 94.4636 40.672 94.3996 40.672C94.3356 40.68 94.2716 40.684 94.2076 40.684H93.9676C93.8716 40.684 93.7716 40.68 93.6676 40.672C93.5716 40.664 93.4756 40.656 93.3796 40.648C93.2916 40.64 93.2276 40.628 93.1876 40.612C93.1636 40.588 93.1236 40.544 93.0676 40.48C93.0116 40.424 92.9516 40.364 92.8876 40.3C92.8236 40.236 92.7636 40.172 92.7076 40.108C92.6596 40.052 92.6316 40.016 92.6236 40L93.1756 40.576ZM93.6676 39.484L93.4036 39.436C93.4516 39.452 93.5236 39.484 93.6196 39.532C93.7156 39.572 93.7876 39.596 93.8356 39.604L93.7996 39.472L93.6676 39.484ZM105.874 39.196C105.874 39.148 105.902 39.104 105.958 39.064C106.014 39.024 106.078 38.988 106.15 38.956C106.23 38.924 106.306 38.896 106.378 38.872C106.458 38.848 106.518 38.828 106.558 38.812C106.942 38.86 107.326 38.9 107.71 38.932C108.094 38.964 108.478 38.98 108.862 38.98C109.006 38.98 109.206 38.98 109.462 38.98C109.718 38.972 109.998 38.956 110.302 38.932C110.606 38.908 110.914 38.872 111.226 38.824C111.538 38.768 111.822 38.692 112.078 38.596C112.334 38.5 112.542 38.38 112.702 38.236C112.862 38.092 112.942 37.912 112.942 37.696C112.942 37.52 112.902 37.364 112.822 37.228C112.75 37.084 112.65 36.96 112.522 36.856C112.402 36.744 112.266 36.652 112.114 36.58C112.058 36.548 111.998 36.52 111.934 36.496C111.998 36.528 112.058 36.56 112.114 36.592C112.258 36.672 112.386 36.772 112.498 36.892C112.618 37.004 112.714 37.132 112.786 37.276C112.858 37.412 112.894 37.568 112.894 37.744C112.894 37.936 112.822 38.1 112.678 38.236C112.542 38.364 112.362 38.472 112.138 38.56C111.922 38.648 111.678 38.716 111.406 38.764C111.142 38.812 110.878 38.848 110.614 38.872C110.35 38.896 110.106 38.912 109.882 38.92C109.658 38.92 109.482 38.92 109.354 38.92C108.946 38.92 108.534 38.908 108.118 38.884C107.71 38.852 107.302 38.816 106.894 38.776C107.038 38.736 107.182 38.708 107.326 38.692C107.478 38.668 107.63 38.656 107.782 38.656C108.038 38.656 108.29 38.66 108.538 38.668C108.786 38.668 109.034 38.668 109.282 38.668C109.578 38.668 109.87 38.664 110.158 38.656C110.446 38.64 110.742 38.608 111.046 38.56L111.082 38.704C111.202 38.68 111.354 38.644 111.538 38.596C111.722 38.54 111.898 38.472 112.066 38.392C112.242 38.312 112.39 38.212 112.51 38.092C112.638 37.972 112.702 37.832 112.702 37.672C112.702 37.44 112.618 37.236 112.45 37.06C112.282 36.884 112.066 36.728 111.802 36.592C111.546 36.448 111.254 36.324 110.926 36.22C110.598 36.116 110.274 36.024 109.954 35.944C109.642 35.864 109.346 35.792 109.066 35.728C108.786 35.664 108.562 35.604 108.394 35.548V35.62C108.562 35.684 108.782 35.752 109.054 35.824C109.326 35.888 109.618 35.96 109.93 36.04C110.25 36.12 110.57 36.212 110.89 36.316C111.21 36.412 111.498 36.528 111.754 36.664C112.018 36.8 112.23 36.956 112.39 37.132C112.558 37.308 112.642 37.508 112.642 37.732C112.642 37.86 112.582 37.972 112.462 38.068C112.342 38.164 112.198 38.248 112.03 38.32C111.87 38.384 111.706 38.436 111.538 38.476C111.37 38.516 111.242 38.544 111.154 38.56C111.258 38.536 111.39 38.504 111.55 38.464C111.718 38.416 111.878 38.356 112.03 38.284C112.19 38.212 112.326 38.128 112.438 38.032C112.55 37.928 112.606 37.808 112.606 37.672C112.606 37.448 112.518 37.26 112.342 37.108C112.166 36.956 111.934 36.82 111.646 36.7C111.358 36.58 111.03 36.472 110.662 36.376C110.294 36.28 109.914 36.176 109.522 36.064C109.138 35.952 108.762 35.824 108.394 35.68C108.026 35.536 107.698 35.356 107.41 35.14C107.122 34.924 106.89 34.668 106.714 34.372C106.538 34.076 106.45 33.72 106.45 33.304C106.45 32.896 106.546 32.552 106.738 32.272C106.938 31.984 107.19 31.752 107.494 31.576C107.806 31.392 108.146 31.26 108.514 31.18C108.882 31.1 109.238 31.06 109.582 31.06C110.086 31.06 110.578 31.132 111.058 31.276C111.546 31.42 112.006 31.62 112.438 31.876C112.39 31.892 112.362 31.916 112.354 31.948C112.346 31.972 112.338 32 112.33 32.032C112.33 32.064 112.322 32.092 112.306 32.116C112.298 32.14 112.274 32.152 112.234 32.152C112.202 32.152 112.138 32.14 112.042 32.116C111.954 32.084 111.858 32.052 111.754 32.02C111.65 31.98 111.55 31.944 111.454 31.912C111.358 31.88 111.294 31.856 111.262 31.84L111.226 31.948C111.298 31.98 111.39 32.028 111.502 32.092C111.622 32.148 111.734 32.22 111.838 32.308C111.95 32.388 112.042 32.476 112.114 32.572C112.194 32.668 112.234 32.764 112.234 32.86C112.234 32.964 112.186 33.016 112.09 33.016C111.97 33.016 111.826 32.984 111.658 32.92C111.498 32.856 111.318 32.788 111.118 32.716C110.918 32.636 110.702 32.564 110.47 32.5C110.246 32.436 110.018 32.404 109.786 32.404C109.634 32.404 109.454 32.42 109.246 32.452C109.046 32.476 108.85 32.528 108.658 32.608C108.474 32.68 108.318 32.784 108.19 32.92C108.062 33.048 107.998 33.212 107.998 33.412C107.998 33.596 108.082 33.752 108.25 33.88C108.426 34.008 108.654 34.124 108.934 34.228C109.222 34.332 109.546 34.432 109.906 34.528C110.266 34.624 110.634 34.732 111.01 34.852C111.394 34.964 111.766 35.096 112.126 35.248C112.486 35.4 112.806 35.584 113.086 35.8C113.374 36.016 113.602 36.272 113.77 36.568C113.946 36.864 114.034 37.212 114.034 37.612C114.034 38.004 113.954 38.336 113.794 38.608C113.634 38.88 113.422 39.108 113.158 39.292C112.894 39.468 112.594 39.608 112.258 39.712C111.922 39.808 111.574 39.884 111.214 39.94C110.862 39.988 110.51 40.016 110.158 40.024C109.814 40.04 109.502 40.048 109.222 40.048H108.022C107.95 40.048 107.85 40.044 107.722 40.036C107.602 40.036 107.482 40.028 107.362 40.012C107.242 40.004 107.138 39.984 107.05 39.952C106.962 39.92 106.918 39.88 106.918 39.832L106.93 39.772C107.258 39.788 107.582 39.804 107.902 39.82C108.222 39.828 108.546 39.832 108.874 39.832C109.178 39.832 109.482 39.832 109.786 39.832C110.058 39.824 110.33 39.808 110.602 39.784C110.466 39.792 110.33 39.8 110.194 39.808C110.026 39.808 109.862 39.808 109.702 39.808H109.222C108.47 39.808 107.73 39.784 107.002 39.736C107.018 39.672 107.026 39.628 107.026 39.604C107.026 39.572 107.018 39.54 107.002 39.508C106.986 39.508 106.962 39.512 106.93 39.52C106.906 39.52 106.874 39.52 106.834 39.52C106.746 39.52 106.646 39.516 106.534 39.508C106.43 39.5 106.326 39.484 106.222 39.46C106.126 39.436 106.042 39.404 105.97 39.364C105.906 39.316 105.874 39.26 105.874 39.196ZM113.242 38.884C113.106 39.004 112.962 39.104 112.81 39.184C112.674 39.256 112.534 39.324 112.39 39.388C112.534 39.34 112.674 39.284 112.81 39.22C112.962 39.156 113.106 39.044 113.242 38.884Z" fill="#E0B973"/>
<path d="M8.712 7.128C8.184 6.84 7.36 6.696 6.24 6.696C5.136 6.696 4.232 6.992 3.528 7.584C3.336 7.888 3.24 8.328 3.24 8.904C3.24 10.136 3.896 11 5.208 11.496L8.328 12.696C10.376 13.48 11.4 14.896 11.4 16.944C11.4 18.336 10.912 19.392 9.936 20.112C8.96 20.832 7.696 21.192 6.144 21.192C4 21.192 2.232 20.536 0.84 19.224L2.376 16.608L2.952 16.776L3.312 19.08C3.904 19.496 4.76 19.704 5.88 19.704C8.264 19.704 9.456 18.896 9.456 17.28C9.456 16.624 9.248 16.088 8.832 15.672C8.416 15.256 7.768 14.88 6.888 14.544L4.128 13.488C2.256 12.768 1.32 11.472 1.32 9.6C1.32 8.192 1.816 7.112 2.808 6.36C3.8 5.592 5.064 5.208 6.6 5.208C8.472 5.208 9.976 5.864 11.112 7.176L9.408 9.552L8.832 9.384L8.712 7.128ZM30.7104 7.392V19.632L32.7744 20.472L32.6304 21H26.7504L26.6064 20.472L27.9264 19.92C28.2144 19.808 28.4064 19.688 28.5024 19.56C28.6144 19.432 28.6704 19.248 28.6704 19.008V13.704H20.9184V19.632L22.9824 20.472L22.8384 21H16.9584L16.8144 20.472L18.1344 19.92C18.4224 19.808 18.6144 19.688 18.7104 19.56C18.8224 19.432 18.8784 19.248 18.8784 19.008V6.768L16.8144 5.928L16.9584 5.4H22.8384L22.9824 5.928L21.6624 6.48C21.3744 6.592 21.1744 6.712 21.0624 6.84C20.9664 6.968 20.9184 7.152 20.9184 7.392V12.336H28.6704V6.768L26.6064 5.928L26.7504 5.4H32.6304L32.7744 5.928L31.4544 6.48C31.1664 6.592 30.9664 6.712 30.8544 6.84C30.7584 6.968 30.7104 7.152 30.7104 7.392ZM42.12 7.368V12.552C43.64 12.552 45.184 12.48 46.752 12.336L47.52 12.264L47.784 12.552L47.52 13.896C45.616 13.784 43.816 13.728 42.12 13.728V19.752L47.328 19.656L48.48 17.544L49.2 17.712V21H38.16L38.016 20.472L39.336 19.92C39.624 19.808 39.816 19.688 39.912 19.56C40.024 19.432 40.08 19.248 40.08 19.008V6.768L38.016 5.928L38.16 5.4H49.08V8.688L48.36 8.856L47.208 6.744L42.768 6.648C42.336 6.648 42.12 6.888 42.12 7.368ZM60.1901 14.232H58.7981V19.632L60.7901 20.472L60.6461 21H54.8381L54.6941 20.472L56.0141 19.92C56.3021 19.808 56.4941 19.688 56.5901 19.56C56.7021 19.432 56.7581 19.248 56.7581 19.008V6.768L54.6941 5.928L54.8381 5.4C57.4781 5.272 59.2861 5.208 60.2621 5.208C64.4061 5.208 66.4781 6.696 66.4781 9.672C66.4781 12.024 65.2141 13.48 62.6861 14.04C62.8621 14.2 63.0221 14.432 63.1661 14.736C64.2541 16.96 65.0621 18.4 65.5901 19.056C66.1181 19.712 66.9341 20.16 68.0381 20.4L67.8701 21L65.1821 21.192C64.3181 20.488 63.6621 19.792 63.2141 19.104C62.7821 18.416 62.0621 17.008 61.0541 14.88C60.8461 14.448 60.5581 14.232 60.1901 14.232ZM58.7981 7.128V13.008H60.3581C61.5421 13.008 62.4701 12.872 63.1421 12.6C63.4941 12.344 63.7661 12.048 63.9581 11.712C64.1501 11.36 64.2461 10.848 64.2461 10.176C64.2461 9.136 63.9661 8.272 63.4061 7.584C62.8621 6.88 61.9581 6.528 60.6941 6.528H59.4461C59.0141 6.528 58.7981 6.728 58.7981 7.128ZM83.0768 19.32C83.0768 19.224 83.0528 19.12 83.0048 19.008L81.9248 15.96H76.3568L75.0848 19.632L77.1488 20.472L77.0048 21H71.7008L71.5568 20.472L72.8768 19.92C73.1488 19.808 73.3168 19.704 73.3808 19.608C73.4608 19.512 73.5568 19.312 73.6688 19.008L78.4688 5.64L79.9328 5.208L80.4128 5.4L85.5728 19.704L87.4448 20.472L87.3008 21H81.4208L81.2768 20.472L82.5968 19.92C82.9168 19.792 83.0768 19.592 83.0768 19.32ZM79.1168 7.992L76.7648 14.736H81.4928L79.1168 7.992ZM102.389 5.4V8.688L101.812 8.856L100.613 6.624L97.9965 6.552C97.7885 6.536 97.6285 6.592 97.5165 6.72C97.4045 6.848 97.3485 7 97.3485 7.176V19.632L99.4125 20.472L99.2685 21H93.3885L93.2445 20.472L94.5645 19.92C94.8525 19.808 95.0445 19.688 95.1405 19.56C95.2525 19.432 95.3085 19.248 95.3085 19.008V6.528L92.0445 6.624L90.8445 8.856L90.2685 8.688V5.4H102.389ZM111.08 7.632C110.088 8.992 109.592 10.744 109.592 12.888C109.592 15.032 110.04 16.704 110.936 17.904C111.848 19.104 113.16 19.704 114.872 19.704C116.296 19.704 117.456 19.408 118.352 18.816C119.344 17.6 119.84 15.888 119.84 13.68C119.84 11.456 119.384 9.744 118.472 8.544C117.576 7.344 116.28 6.744 114.584 6.744C113.176 6.744 112.008 7.04 111.08 7.632ZM107.36 13.32C107.36 11.976 107.568 10.776 107.984 9.72C108.4 8.664 108.96 7.816 109.664 7.176C111.136 5.864 112.904 5.208 114.968 5.208C117.048 5.208 118.752 5.912 120.08 7.32C121.408 8.728 122.072 10.664 122.072 13.128C122.072 14.472 121.864 15.672 121.448 16.728C121.032 17.768 120.464 18.608 119.744 19.248C118.304 20.544 116.544 21.192 114.464 21.192C112.384 21.192 110.68 20.496 109.352 19.104C108.024 17.712 107.36 15.784 107.36 13.32ZM141.616 7.392V21L139.888 21.192L131.008 8.568V19.632L133.072 20.472L132.928 21H127.504L127.36 20.472L128.68 19.92C128.968 19.808 129.16 19.688 129.256 19.56C129.368 19.432 129.424 19.248 129.424 19.008V6.768L127.36 5.928L127.504 5.4H131.512L140.008 17.496V17.544L140.032 17.496V6.768L137.968 5.928L138.112 5.4H143.536L143.68 5.928L142.36 6.48C142.072 6.592 141.872 6.712 141.76 6.84C141.664 6.968 141.616 7.152 141.616 7.392Z" fill="#E0B973"/>
</svg>
